<svg width="24" height="24" viewBox="0 0 24 24" fill="none" xmlns="http://www.w3.org/2000/svg">
<path d="M20 6.49781C19.9994 5.82936 19.7381 5.20131 19.2641 4.72927C18.2867 3.75563 16.6975 3.75697 15.7211 4.73293L5.63509 14.8424C5.30702 15.1697 5.0566 15.5749 4.91085 16.0141L4.90143 16.0427L4 20L7.97499 19.1116L8.0046 19.1018C8.4448 18.9563 8.85087 18.7065 9.1798 18.3783L19.2672 8.2676C19.7403 7.79469 20.0006 7.16615 20 6.49781ZM6.20429 18.2273L5.78281 17.8063L6.08715 16.4699L7.54629 17.9274L6.20429 18.2273ZM18.3813 7.38551L8.5882 17.2013L6.81483 15.4298L13.5231 8.70607L14.5446 9.72587L15.4293 8.84267L14.4059 7.82106L15.3576 6.86732L16.3828 7.89076L17.2675 7.00758L16.2405 5.98231L16.6069 5.61501C17.0954 5.12673 17.8911 5.12599 18.3805 5.61342C18.6177 5.84975 18.7485 6.1642 18.7489 6.49879C18.7491 6.83351 18.6189 7.14809 18.3813 7.38551ZM10.5817 18.7374H20V19.9865H9.33487L10.5817 18.7374Z" fill="black"/>
</svg>
