<svg width="32" height="32" viewBox="0 0 32 32" fill="none" xmlns="http://www.w3.org/2000/svg">
<path d="M28 7.74672C27.9991 6.74404 27.6071 5.80196 26.8962 5.0939C25.43 3.63345 23.0463 3.63546 21.5817 5.09939L6.45264 20.2636C5.96053 20.7545 5.5849 21.3623 5.36627 22.0212L5.35214 22.0641L4 28L9.96249 26.6674L10.0069 26.6527C10.6672 26.4344 11.2763 26.0598 11.7697 25.5674L26.9008 10.4014C27.6104 9.69204 28.0009 8.74923 28 7.74672V7.74672ZM7.30644 25.3409L6.67421 24.7094L7.13073 22.7048L9.31943 24.8911L7.30644 25.3409ZM25.5719 9.07827L10.8823 23.8019L8.22224 21.1447L18.2846 11.0591L19.8169 12.5888L21.1439 11.264L19.6089 9.73159L21.0364 8.30098L22.5742 9.83614L23.9012 8.51137L22.3607 6.97347L22.9104 6.42251C23.6431 5.69009 24.8366 5.68899 25.5707 6.42013C25.9265 6.77462 26.1227 7.2463 26.1233 7.74819C26.1237 8.25026 25.9283 8.72213 25.5719 9.07827V9.07827ZM13.8726 26.1061H28V27.9797H12.0023L13.8726 26.1061Z" fill="white"/>
</svg>
