<?xml-stylesheet type="text/css" href="/styles/style.css"?>
<svg width="32" height="32" viewBox="0 0 32 32" 
    xmlns="http://www.w3.org/2000/svg">
    <path d="M13.3724 20.8702H16.559V22.7447H13.3724V20.8702ZM9.85773 20.636C9.21063 20.636 8.68622 21.1605 8.68622 21.8076C8.68622 22.4545 9.21063 22.9791 9.85773 22.9791C10.5048 22.9791 11.0292 22.4545 11.0292 21.8076C11.0292 21.1605 10.5048 20.636 9.85773 20.636ZM22.8384 14.9188H13.3724V16.7932H22.8384V14.9188ZM9.85773 14.6846C9.21063 14.6846 8.68622 15.209 8.68622 15.8561C8.68622 16.5032 9.21063 17.0276 9.85773 17.0276C10.5048 17.0276 11.0292 16.5032 11.0292 15.8561C11.0292 15.209 10.5048 14.6846 9.85773 14.6846V14.6846ZM22.8384 9.29541H13.3724V11.1699H22.8384V9.29541ZM9.85773 9.06104C9.21063 9.06104 8.68622 9.58563 8.68622 10.2325C8.68622 10.8796 9.21063 11.4042 9.85773 11.4042C10.5048 11.4042 11.0292 10.8796 11.0292 10.2325C11.0292 9.58563 10.5048 9.06104 9.85773 9.06104ZM5.87445 25.1816V6.81177C5.87445 6.29486 6.29486 5.87445 6.81177 5.87445H25.1816C25.6984 5.87445 26.1188 6.29486 26.1188 6.81177V17.4026H27.9932V6.81177C27.9932 5.26141 26.732 4 25.1816 4H6.81177C5.26141 4 4 5.26141 4 6.81177V25.1816C4 26.732 5.26141 27.9932 6.81177 27.9932H17.6368V26.1188H6.81177C6.29486 26.1188 5.87445 25.6984 5.87445 25.1816V25.1816ZM26.6745 28L24.8079 26.1334C24.1764 26.5108 23.4387 26.728 22.6511 26.728C20.3255 26.728 18.4335 24.8359 18.4335 22.5105C18.4335 20.1849 20.3255 18.2928 22.6511 18.2928C24.9766 18.2928 26.8686 20.1849 26.8686 22.5105C26.8686 23.3709 26.6093 24.1718 26.1653 24.8398L28 26.6745L26.6745 28ZM22.6511 24.8535C23.9431 24.8535 24.9941 23.8025 24.9941 22.5105C24.9941 21.2185 23.9431 20.1673 22.6511 20.1673C21.3591 20.1673 20.3079 21.2185 20.3079 22.5105C20.3079 23.8025 21.3591 24.8535 22.6511 24.8535Z" fill="none"/>
</svg>
