<svg width="24" height="24" viewBox="0 0 24 24" fill="none" xmlns="http://www.w3.org/2000/svg">
<path d="M10.2483 15.2468H12.3727V16.4965H10.2483V15.2468ZM7.90515 15.0907C7.47375 15.0907 7.12415 15.4403 7.12415 15.8717C7.12415 16.303 7.47375 16.6527 7.90515 16.6527C8.33653 16.6527 8.68613 16.303 8.68613 15.8717C8.68613 15.4403 8.33653 15.0907 7.90515 15.0907ZM16.5589 11.2792H10.2483V12.5288H16.5589V11.2792ZM7.90515 11.1231C7.47375 11.1231 7.12415 11.4727 7.12415 11.9041C7.12415 12.3355 7.47375 12.6851 7.90515 12.6851C8.33653 12.6851 8.68613 12.3355 8.68613 11.9041C8.68613 11.4727 8.33653 11.1231 7.90515 11.1231ZM16.5589 7.53027H10.2483V8.77993H16.5589V7.53027ZM7.90515 7.37403C7.47375 7.37403 7.12415 7.72375 7.12415 8.155C7.12415 8.5864 7.47375 8.93613 7.90515 8.93613C8.33653 8.93613 8.68613 8.5864 8.68613 8.155C8.68613 7.72375 8.33653 7.37403 7.90515 7.37403ZM5.24963 18.1211V5.87451C5.24963 5.52991 5.52991 5.24963 5.87451 5.24963H18.1211C18.4656 5.24963 18.7459 5.52991 18.7459 5.87451V12.9351H19.9955V5.87451C19.9955 4.84094 19.1547 4 18.1211 4H5.87451C4.84094 4 4 4.84094 4 5.87451V18.1211C4 19.1547 4.84094 19.9955 5.87451 19.9955H13.0912V18.7459H5.87451C5.52991 18.7459 5.24963 18.4656 5.24963 18.1211ZM19.1163 20L17.8719 18.7556C17.4509 19.0072 16.9591 19.152 16.4341 19.152C14.8837 19.152 13.6223 17.8906 13.6223 16.3403C13.6223 14.7899 14.8837 13.5285 16.4341 13.5285C17.9844 13.5285 19.2457 14.7899 19.2457 16.3403C19.2457 16.9139 19.0729 17.4479 18.7769 17.8932L20 19.1163L19.1163 20ZM16.4341 17.9023C17.2954 17.9023 17.9961 17.2017 17.9961 16.3403C17.9961 15.479 17.2954 14.7782 16.4341 14.7782C15.5727 14.7782 14.8719 15.479 14.8719 16.3403C14.8719 17.2017 15.5727 17.9023 16.4341 17.9023Z" fill="black"/>
</svg>
