<?xml-stylesheet type="text/css" href="style.css"?>
<svg width="32" height="32" viewBox="0 0 32 32" 
    xmlns="http://www.w3.org/2000/svg">
    <path d="M26.0992 18.5877C26.14 18.2609 26.1719 17.9144 26.1719 17.5582C26.1719 13.3793 23.7313 9.61891 20.0269 7.97237C19.9351 5.76592 18.1643 4 16 4C13.8355 4 12.0647 5.76611 11.9731 7.97256C8.27057 9.61967 5.82812 13.3857 5.82812 17.5582C5.82812 17.9174 5.8598 18.2671 5.89972 18.5884C4.76007 19.3228 4 20.6265 4 22.1101C4 24.3995 5.80835 26.262 8.03125 26.262C8.67157 26.262 9.2771 26.1068 9.81525 25.832C11.58 27.2319 13.7648 28 16 28C18.2427 28 20.4176 27.2336 22.1846 25.8318C22.7229 26.1068 23.3284 26.262 23.9688 26.262C26.1917 26.262 28 24.3995 28 22.1101C28 20.6259 27.2394 19.3218 26.0992 18.5877V18.5877ZM16 5.93112C17.1889 5.93112 18.1562 6.92742 18.1562 8.15191C18.1562 9.37639 17.1889 10.3727 16 10.3727C14.8111 10.3727 13.8438 9.37639 13.8438 8.15191C13.8438 6.92742 14.8111 5.93112 16 5.93112ZM8.03125 24.3309C6.84235 24.3309 5.875 23.3346 5.875 22.1101C5.875 20.8856 6.84235 19.8893 8.03125 19.8893C9.22015 19.8893 10.1875 20.8856 10.1875 22.1101C10.1875 23.3346 9.22015 24.3309 8.03125 24.3309ZM11.2896 24.5508C11.775 23.8651 12.0625 23.0217 12.0625 22.1101C12.0625 19.8207 10.2542 17.9582 8.03125 17.9582C7.92688 17.9582 7.82361 17.9636 7.72107 17.9718C7.7099 17.8318 7.70312 17.6947 7.70312 17.5582C7.70312 14.297 9.53674 11.3394 12.3525 9.91782C12.9982 11.3264 14.39 12.3038 16 12.3038C17.61 12.3038 19.002 11.3264 19.6475 9.91763C22.4647 11.3384 24.2969 14.2919 24.2969 17.5582C24.2969 17.6938 24.2896 17.832 24.2782 17.9718C24.1758 17.9636 24.0729 17.9582 23.9688 17.9582C21.7458 17.9582 19.9375 19.8207 19.9375 22.1101C19.9375 23.0217 20.225 23.8651 20.7104 24.5508C19.334 25.5346 17.6906 26.0689 16 26.0689C14.3151 26.0689 12.6655 25.5335 11.2896 24.5508V24.5508ZM23.9688 24.3309C22.7798 24.3309 21.8125 23.3346 21.8125 22.1101C21.8125 20.8856 22.7798 19.8893 23.9688 19.8893C25.1577 19.8893 26.125 20.8856 26.125 22.1101C26.125 23.3346 25.1577 24.3309 23.9688 24.3309Z" fill="none"/>
</svg>
