<svg width="24" height="24" viewBox="0 0 24 24" fill="none" xmlns="http://www.w3.org/2000/svg">
<path d="M18.7328 13.7251C18.76 13.5073 18.7813 13.2763 18.7813 13.0388C18.7813 10.2529 17.1542 7.74594 14.6846 6.64825C14.6234 5.17728 13.4429 4 12 4C10.557 4 9.37647 5.17741 9.3154 6.64837C6.84705 7.74645 5.21875 10.2571 5.21875 13.0388C5.21875 13.2783 5.23987 13.5114 5.26648 13.7256C4.50671 14.2152 4 15.0843 4 16.0734C4 17.5997 5.20557 18.8413 6.6875 18.8413C7.11438 18.8413 7.51807 18.7379 7.87683 18.5547C9.05333 19.4879 10.5099 20 12 20C13.4951 20 14.9451 19.4891 16.1231 18.5545C16.4819 18.7379 16.8856 18.8413 17.3125 18.8413C18.7945 18.8413 20 17.5997 20 16.0734C20 15.0839 19.4929 14.2145 18.7328 13.7251ZM12 5.28741C12.7926 5.28741 13.4375 5.95161 13.4375 6.76794C13.4375 7.58426 12.7926 8.24847 12 8.24847C11.2074 8.24847 10.5625 7.58426 10.5625 6.76794C10.5625 5.95161 11.2074 5.28741 12 5.28741ZM6.6875 17.5539C5.8949 17.5539 5.25 16.8897 5.25 16.0734C5.25 15.2571 5.8949 14.5929 6.6875 14.5929C7.4801 14.5929 8.125 15.2571 8.125 16.0734C8.125 16.8897 7.4801 17.5539 6.6875 17.5539ZM8.85973 17.7005C9.18333 17.2434 9.375 16.6811 9.375 16.0734C9.375 14.5471 8.16947 13.3055 6.6875 13.3055C6.61792 13.3055 6.54907 13.3091 6.48071 13.3145C6.47327 13.2212 6.46875 13.1298 6.46875 13.0388C6.46875 10.8647 7.69116 8.89293 9.56833 7.94521C9.9988 8.88427 10.9267 9.53587 12 9.53587C13.0733 9.53587 14.0013 8.88427 14.4317 7.94509C16.3098 8.89227 17.5313 10.8613 17.5313 13.0388C17.5313 13.1292 17.5264 13.2213 17.5188 13.3145C17.4505 13.3091 17.3819 13.3055 17.3125 13.3055C15.8305 13.3055 14.625 14.5471 14.625 16.0734C14.625 16.6811 14.8167 17.2434 15.1403 17.7005C14.2227 18.3564 13.1271 18.7126 12 18.7126C10.8767 18.7126 9.777 18.3557 8.85973 17.7005ZM17.3125 17.5539C16.5199 17.5539 15.875 16.8897 15.875 16.0734C15.875 15.2571 16.5199 14.5929 17.3125 14.5929C18.1051 14.5929 18.75 15.2571 18.75 16.0734C18.75 16.8897 18.1051 17.5539 17.3125 17.5539Z" fill="black"/>
</svg>
